# xmcd
#
# Track frame offsets:
#	182
#	14527
#	26015
#	39402
#	52950
#	65285
#	75450
#	93710
#	106190
#	118100
#	128087
#	140027
#	152075
#	164380
#	176875
#	185145
#
# Disc length: 2649
#
# Revision: 2
# Processed by: cddbd v1.5.1PL0 Copyright (c) Steve Scherf et al.
# Submitted via: CDmax 1.4
# Normalized: r1:TDELIM( - )
#
DISCID=da0a5710
DTITLE=Various Artist - Best of Country, Vol .3
DYEAR=1900
DGENRE=
TTITLE0=Slim Whitman - Indian Love Call
TTITLE1=Jean-Shepard and Ferlin Husky - A Dear John Letter
TTITLE2=Hank Thompson and Merle Travis - Wildwood Flower
TTITLE3=Glen Campbell - Gentle On My Mind
TTITLE4=Roy Clark - Tips Of My Finger
TTITLE5=Willie Nelson - Touch Me
TTITLE6=Bobby Goldsboro - Honey
TTITLE7=Johnny Paycheck - Take This Job And Shove It
TTITLE8=Conway Twitty - What Am I Living For
TTITLE9=Ned Miller - From A Jack To A King
TTITLE10=Johnny Preston - Running Bear
TTITLE11=Frankie Laine - High Noon
TTITLE12=Bobby Helms - Tennessee Rock'n'Roll
TTITLE13=Ray Price - Release Me
TTITLE14=Elvis Presley - Teddy Bear
TTITLE15=Johnny Cash - Don't Take Your Guns To Town
EXTD=
EXTT0=
EXTT1=
EXTT2=
EXTT3=
EXTT4=
EXTT5=
EXTT6=
EXTT7=
EXTT8=
EXTT9=
EXTT10=
EXTT11=
EXTT12=
EXTT13=
EXTT14=
EXTT15=
PLAYORDER=
